<?xml version="1.0" standalone="no"?>
<!DOCTYPE svg PUBLIC "-//W3C//DTD SVG 20010904//EN"
 "http://www.w3.org/TR/2001/REC-SVG-20010904/DTD/svg10.dtd">
<svg version="1.0" xmlns="http://www.w3.org/2000/svg"
 width="500.000000pt" height="500.000000pt" viewBox="0 0 500.000000 500.000000"
 preserveAspectRatio="xMidYMid meet">
<metadata>
Created by potrace 1.11, written by Peter Selinger 2001-2013
</metadata>
<g transform="translate(0.000000,500.000000) scale(0.100000,-0.100000)"
fill="#000000" stroke="none">
<path d="M2360 4704 c-14 -2 -65 -9 -115 -15 -119 -15 -328 -68 -446 -115
-413 -162 -785 -464 -1043 -847 -148 -221 -310 -602 -368 -867 -21 -96 -23
-130 -23 -380 1 -301 13 -412 74 -646 189 -725 745 -1286 1448 -1465 179 -45
325 -62 538 -62 340 0 607 57 895 190 483 224 953 730 1174 1265 49 117 103
307 127 448 27 148 36 444 20 601 -51 495 -279 960 -650 1329 -327 325 -718
510 -1183 560 -90 9 -391 12 -448 4z m336 -169 c259 -45 458 -155 656 -363
120 -128 218 -272 317 -472 153 -308 227 -601 252 -986 38 -599 -114 -1209
-416 -1664 -182 -275 -419 -459 -688 -535 -484 -136 -1045 77 -1336 509 -65
96 -159 289 -200 411 -122 364 -193 795 -193 1175 -1 347 67 678 205 1010 94
224 213 404 385 582 151 155 278 237 462 297 156 50 386 65 556 36z"/>
</g>
</svg>
