<?xml version="1.0" encoding="utf-8"?>
<!-- Generator: Adobe Illustrator 18.0.0, SVG Export Plug-In . SVG Version: 6.00 Build 0)  -->
<!DOCTYPE svg PUBLIC "-//W3C//DTD SVG 1.1//EN" "http://www.w3.org/Graphics/SVG/1.1/DTD/svg11.dtd">
<svg version="1.1" id="Layer_1" xmlns="http://www.w3.org/2000/svg" xmlns:xlink="http://www.w3.org/1999/xlink" x="0px" y="0px"
	 viewBox="0 0 1920 520" enable-background="new 0 0 1920 520" xml:space="preserve">
<path fill-rule="evenodd" clip-rule="evenodd" fill="#1496BC" d="M1283.1,433.9l-737,0c-0.2-0.1-0.3-0.2-0.5-0.3
	c-4.5-14-15.7-24.1-33.1-24.1c-17.3,0-34.7,15.5-34.7,34.7c0,19.2,17.3,34.7,34.7,34.7c17.4,0,28.8-10.3,33.2-24.5
	c137.3,0.3,278.4-0.1,415.7,0l310.4,0c36.2-0.7,51.2-1,83.8-19.5c21.6-12.7,39.6-30.7,52.8-51.4c6.5-10.2,12.7-22.4,16.9-35.2
	c8.6-25.7,2.7-30,15.2-35.8c24-11.1,37.9-30,51.7-51.5c12.6-19.8,24.4-45.6,33.6-69.6c9.8-25.7,17.8-51.3,25.2-79
	c3.5-13,19.3-77.3,12.4-87.6c-4.3-6.3-13.6-4.8-21.9-4.8c-17.6,0-26-0.2-30.1-0.8c-3.9-6.1-10.6-10.1-18.3-10.1
	c-12,0-21.7,9.7-21.7,21.7c0,12,9.7,21.7,21.7,21.7c8.5,0,14.6-4.5,19.3-10.8l30.5,0.5c1.5,12.8-11.7,63.7-15.5,77
	c-7.2,25.1-14.7,46.7-23.7,70.2c-13.4,34.9-46.5,105.2-82.6,105.9c-38.5,0.7-71.5-68.7-85.8-102.7c-9.2-22-16.8-45.9-23.5-70.4
	c-3.7-13.5-16.1-68-13.1-80.5l42.3-0.4c3.7,6.6,10.8,11.1,18.9,11.1c12,0,21.7-9.7,21.7-21.7c0-12-9.7-21.7-21.7-21.7
	c-8.4,0-15.6,4.7-19.3,11.7c-12-1-53.7-2.4-59.8,1.1c-9.6,5.4-3,40.5-0.9,52.8c5.6,33.5,14,68.1,24.8,98.6
	c14.8,41.5,35.5,90.2,65.9,120c19.4,19,28,16.9,38.2,23c2.9,16.1-10.1,41.5-16.8,52.6c-5.5,9.1-15.3,21.8-23.1,29
	c-17.3,14.5-31,23.6-47.3,29.1C1310.5,430.8,1298.3,432.9,1283.1,433.9z"/>
<path fill-rule="evenodd" clip-rule="evenodd" fill="#1496BC" d="M386.5,264.3c-3.1,33.1-10,53.1-25.5,76.7
	c-31.9,48.8-101.5,41.4-126.4-13.8c-10.6-23.5-16.6-58.3-15.8-87.5c0.8-30.1,12.3-57.9,25.6-76.6c12.9-18.2,35-36.3,70.4-30.5
	C363.6,140.6,392,206.1,386.5,264.3L386.5,264.3z M295.1,122.7c-21.7,2.7-32.9,5.6-49.6,14.9c-12.6,7-28.1,19.6-35.5,28.8
	c-10.5,13.2-16.7,21.8-24.4,40c-7,16.4-11,34.3-10,54.7c1.3,25.6,9.3,52.5,23.4,72.2c13.4,18.7,32.9,34.3,54.5,42.5
	c43.3,16.5,89.6,7.5,124.8-20.7c15.7-12.5,33.2-35.6,41.7-55.3c7.1-16.3,10.7-35,10.5-55C429.5,176.8,369,113.4,295.1,122.7z"/>
<path fill-rule="evenodd" clip-rule="evenodd" fill="#1496BC" d="M935.5,162.6c-3.5-4.2-27.7-34.7-30.2-35.1
	c-12.7,0-56-1.7-63.5,1.6c-0.2,7.7,7.3,5.3,14,8.1c13.3,5.6,24.1,21.1,30.1,34.2c8.4,18.2,5.8,56.6,6.5,79.6c0.7,24.8,3.3,59,1,83.2
	c-1.2,12.5-3.3,25.7-11.1,31.6c-11.5,8.6-21.7,4.2-32.1,7.7c-0.7,0.2-1.4,0.5-2.1,0.8c0,0.5,0,0.9,0,1.2c0.3,4,1.7,4.4,6.1,4.6
	l33.7,0.1c15,0,30,0,44.9,0c4.3,0,18.9,1.5,21.3-1.9c4.5-6.3-8.8-6.3-13.3-6.6c-11.8-0.9-23.5-9.5-27.9-17.2
	c-10.1-17.8-12.9-162.4-8.7-169c4.3,1.2,7.9,8.5,11,12.5c3.7,4.7,6.7,7.5,10.5,11.9c4.3,5,6,7.2,11.1,12.4
	c11.4,11.5,21.2,25.1,31.7,36.7c3.6,4,7,8.4,10.6,12.9c21.4,26.3,50.9,59.9,74.1,86.3c9,10.3,15.1,22.1,23.7,21.5
	c6.7-17,0.2-189,6-216.5c2.1-10.2,7.3-17.6,15-21.8c12.6-6.9,26.2-4.7,27.5-8.9c-0.3-5.6-4.1-4.7-9.8-4.7l-72.5,0.8
	c-4.3,0.2-8.8,0.4-13.4,0.6c-5.7,0.2-9.2-0.5-9.1,5.3c6.6,5.3,25.9-1.5,40.7,17.4c9.6,12.3,8.1,31.4,9.1,49.1
	c0.8,16,0.6,102-2.1,114c-3.2-1-35.3-39.7-41.2-46.1c-3.4-3.6-6.9-8.3-10.3-12.2L935.5,162.6z"/>
<path fill-rule="evenodd" clip-rule="evenodd" fill="#1496BC" d="M1559.4,270.2c-0.2-13.3,30.5-82.6,40.3-103.3
	c3,3.5,39.7,98.8,39.6,103.5C1616.7,270.5,1580.3,272.2,1559.4,270.2L1559.4,270.2z M1643.3,281.8c2.6,3.3,17.7,49.4,19.9,56.9
	c6.3,21.2,5.7,30.5-17.2,33.9c-2.5,0.4-6.1,0.4-8.3,0.9c-3.7,0.9-3.9,1.2-3.7,5.6c4.7,2.1,68.3-0.3,86.3,0.9
	c7.3,0.5,19.3,3,24.3,0.1c-0.4-8.5-5.5-4.7-16.4-8.2c-7.4-2.4-10.5-5.3-14.7-9.6c-6.4-6.6-12-21.6-16-31.7
	c-9.2-23.2-17.6-46.4-26-70.2c-18.3-52-32.9-87.9-54.4-137.9l-9.3,0.2c-11.9,14.6-71,180.6-81,205.6c-7,17.5-13,34.4-30.4,41.6
	c-6.7,2.8-14.9,0.5-14,8.9c5.3,2.2,36,0.8,44.3,0.7l39.5,1c4.5-0.7,1.7,0.5,3.9-1.7c6.3-10.9-42.6,1.6-34.3-38.2
	c3.7-17.8,12.4-42.6,18.9-58L1643.3,281.8z"/>
<path fill-rule="evenodd" clip-rule="evenodd" fill="#1496BC" d="M664,160.8c-15.3-30-43-34.6-85.4-37.3
	c-12.7-0.8-112.5-0.9-116.6,1.1c-1.9,30.5,150.8-27.6,168.8,46.9c3.9,16-0.6,34.2-6.6,47c-21.5,45.8-85.7,26.3-129.2,29.2
	c-1.1,5.1-0.7,68-1.1,80.3c-0.4,10.7-0.9,26.8-7.2,33.8c-10.4,11.6-25.3,5.2-24.4,15.2c4.7,3.2,42.3,2.2,50.9,2.2
	c11,0,44.5,2.2,50.8-2.2c-0.4-7.4-6.5-5.2-13.3-6.7c-5.5-1.3-9.3-3.8-12.6-6.8c-8.2-7.2-8.5-16.4-8.8-30.3
	c-0.3-12.1-1.4-27-0.7-38.8l1.4-33.6c0-0.3,0.1-0.6,0.2-0.9l0.5-1.5c0.2-1.7,47.9-0.6,58.2-1.6c17.1-1.6,35.4-5.8,48.8-12.6
	c13.5-6.9,24-17,29.5-31.7C673,196.1,671.3,175.2,664,160.8z"/>
<path fill-rule="evenodd" clip-rule="evenodd" fill="#1496BC" d="M1246.3,141.6c2.7-2.9,7.8-5.7,13.2-7.4c6.3-1.9,12.6-0.4,14.6-5.8
	c-3-6.1-15.3-3.8-22.6-3.8l-78.4,0.2c-4.2,1.6-2.5,5.8,1,7.3c5,2.2,19.3,1.1,23.8,16c7.2,23.7,5.9,169.4,3.5,202.9
	c-2.1,29-21.4,15.3-28,24.5c1.1,5.3,2.6,4.8,8.5,4.7c14.1-0.1,89.3,1.3,91.3-1.4c2.8-7-5.8-6.2-11.6-7.4c-20-4.3-21.2-18.2-22-38.8
	c-1-26.6-1.4-53.3-2.6-79.7C1236.3,235.4,1234,154.6,1246.3,141.6z"/>
<path fill-rule="evenodd" clip-rule="evenodd" fill="#1496BC" d="M769.7,141.6c2.7-2.9,7.8-5.7,13.2-7.4c6.3-1.9,12.6-0.4,14.6-5.8
	c-3-6.1-15.3-3.8-22.6-3.8l-78.4,0.2c-4.2,1.6-2.5,5.8,1,7.3c5,2.2,19.3,1.1,23.8,16c7.2,23.7,5.9,169.4,3.5,202.9
	c-2.1,29-21.4,15.3-28,24.5c1.1,5.3,2.6,4.8,8.5,4.7c14.1-0.1,89.3,1.3,91.3-1.4c2.8-7-5.8-6.2-11.6-7.4c-20-4.3-21.2-18.2-22-38.8
	c-1-26.6-1.4-53.3-2.6-79.7C759.8,235.4,757.5,154.6,769.7,141.6z"/>
</svg>
